<?xml version="1.0" encoding="UTF-8"?>
<svg version="1.1" xmlns="http://www.w3.org/2000/svg" width="512" height="512">
<path d="M0 0 C0.768601 -0.00623996 1.537202 -0.01247993 2.32909393 -0.01890898 C4.89484172 -0.03481581 7.45963642 -0.02224428 10.02539062 -0.00964355 C11.86873935 -0.01506571 13.71208373 -0.0221889 15.55541992 -0.03088379 C20.55541624 -0.04910888 25.55508218 -0.04205293 30.55508423 -0.02936745 C35.789336 -0.0192356 41.02355961 -0.02863364 46.2578125 -0.03491211 C55.04757767 -0.04218796 63.83720837 -0.0326024 72.62695312 -0.0135498 C82.78698248 0.00821878 92.94669076 0.00116737 103.10671234 -0.02085543 C111.8321482 -0.03901115 120.55748745 -0.04156689 129.2829361 -0.03110075 C134.49328372 -0.02486679 139.70348045 -0.02402758 144.91381836 -0.0372467 C149.81245951 -0.04880703 154.71068696 -0.04077601 159.60928345 -0.01766968 C161.40637526 -0.01238358 163.20350192 -0.01389467 165.00057983 -0.02272034 C167.45528259 -0.03366361 169.90866261 -0.01992806 172.36328125 0 C173.07320976 -0.00892289 173.78313828 -0.01784577 174.51457977 -0.02703905 C180.74039794 0.07089346 184.26165575 2.56234989 188.52539062 6.88293457 C191.14815044 12.62331454 190.75825421 18.27669598 190.68164062 24.50793457 C190.69710938 25.76605957 190.71257812 27.02418457 190.72851562 28.32043457 C190.67923623 39.95037102 190.67923623 39.95037102 186.18164062 44.50793457 C181.66932665 48.04801353 178.78812086 49.00328822 173.07470703 48.96203613 C172.39108093 48.96262024 171.70745483 48.96320435 171.00311279 48.96380615 C168.76261087 48.96103828 166.52347012 48.93001138 164.28320312 48.89855957 C162.72236864 48.89109248 161.16152473 48.88540176 159.60067749 48.88140869 C155.50695585 48.86618898 151.41380841 48.82693964 147.3203125 48.78259277 C142.40109624 48.73433706 137.4816872 48.71608853 132.56230164 48.69277954 C125.10168283 48.65408546 117.64232212 48.57740807 110.18164062 48.50793457 C110.18164062 59.06793457 110.18164062 69.62793457 110.18164062 80.50793457 C117.80386719 80.4383252 117.80386719 80.4383252 125.58007812 80.36730957 C128.81577587 80.34685076 132.05139291 80.32759365 135.28710938 80.31262207 C140.41341898 80.28878962 145.53944047 80.26071744 150.66552734 80.20617676 C154.80230473 80.1624419 158.9387728 80.1387397 163.0757637 80.1284256 C164.64730314 80.12108345 166.21882729 80.10674691 167.79023361 80.08501434 C179.11280389 79.93477264 188.97773478 80.70487628 197.65039062 88.80480957 C204.39510612 96.30658497 206.49855367 103.9444387 206.37695312 113.84387207 C206.37493896 114.62415771 206.3729248 115.40444336 206.37084961 116.20837402 C206.36045127 119.09995472 206.33252904 121.99145107 206.30664062 124.88293457 C206.26539063 131.35918457 206.22414063 137.83543457 206.18164062 144.50793457 C222.02164062 144.50793457 237.86164063 144.50793457 254.18164062 144.50793457 C254.13523437 140.67941895 254.08882813 136.85090332 254.04101562 132.90637207 C254.00980892 129.19300665 253.98552732 125.4796559 253.96191406 121.76623535 C253.941815 119.18804369 253.91453121 116.60989753 253.87988281 114.03186035 C253.83129216 110.32324996 253.80865405 106.61524301 253.79101562 102.90637207 C253.77037048 101.7561557 253.74972534 100.60593933 253.72845459 99.42086792 C253.72674818 93.31721713 253.7714637 89.15172078 258.18164062 84.50793457 C262.58861426 80.8250899 265.65119979 79.99752447 271.34570312 79.97668457 C272.35568863 79.97094421 272.35568863 79.97094421 273.38607788 79.96508789 C274.80639141 79.96237882 276.22675568 79.96966963 277.64697266 79.9864502 C279.78080732 80.00767758 281.91119767 79.98672546 284.04492188 79.96105957 C299.32473456 79.92848712 310.70684618 84.40618327 321.93164062 94.82043457 C332.88967645 106.39873658 334.63540759 119.18736191 334.58569336 134.50744629 C334.5914054 136.10519892 334.59837286 137.70294748 334.60649109 139.3006897 C334.62434656 143.61487473 334.62326842 147.92885551 334.6175487 152.24306631 C334.61444549 155.85611896 334.62056192 159.46913301 334.62658745 163.08218014 C334.64060637 171.61198939 334.63909365 180.14169843 334.62768555 188.67150879 C334.61620954 197.44549715 334.63027728 206.21917964 334.65708202 214.9931277 C334.67929715 222.55016401 334.68586326 230.10710472 334.68000561 237.66417134 C334.67664839 242.16708717 334.67896832 246.66980706 334.69625664 251.17269516 C334.71181654 255.40986571 334.70767097 259.64658612 334.68895149 263.88373947 C334.68529034 265.42998677 334.68830105 266.97626809 334.69883728 268.52248383 C334.80018493 284.63804721 330.90600531 296.36206862 319.86914062 308.25793457 C308.92483223 318.61594073 296.65237744 321.04223659 282.08496094 320.95397949 C279.92092981 320.94539207 277.75948012 320.97444877 275.59570312 321.00598145 C274.20247474 321.00759217 272.80924174 321.00701839 271.41601562 321.00402832 C270.17045898 321.00588135 268.92490234 321.00773437 267.64160156 321.00964355 C262.30674249 320.2360664 259.4780861 317.87305341 255.83105469 314.03283691 C253.36316198 308.75879385 253.68780778 303.85958398 253.79101562 298.10949707 C253.79667542 296.91940033 253.80233521 295.72930359 253.8081665 294.50314331 C253.83050611 290.71265971 253.880701 286.92313112 253.93164062 283.13293457 C253.95170861 280.5587295 253.96995886 277.98450957 253.98632812 275.41027832 C254.02695638 269.10883567 254.10525861 262.80945052 254.18164062 256.50793457 C238.34164063 256.50793457 222.50164062 256.50793457 206.18164062 256.50793457 C206.22804688 260.43441895 206.27445312 264.36090332 206.32226562 268.40637207 C206.35350967 272.23236805 206.37776999 276.05834952 206.40136719 279.88439941 C206.42141442 282.53225117 206.44865946 285.18005903 206.48339844 287.82775879 C206.53221806 291.64574045 206.55467943 295.46313393 206.57226562 299.28137207 C206.59291077 300.45469086 206.61355591 301.62800964 206.63482666 302.83688354 C206.63744497 312.54669744 204.64671895 320.73661334 197.88476562 327.97668457 C191.50825343 333.70969553 184.53311731 336.7484176 175.90875244 336.77536011 C174.66966125 336.78389008 173.43057007 336.79242004 172.15393066 336.8012085 C170.79370104 336.80050957 169.43347152 336.79958657 168.07324219 336.79846191 C166.6304693 336.80445106 165.1876996 336.81125749 163.74493408 336.81881714 C159.83563448 336.83644727 155.9264225 336.84117131 152.01708698 336.84244871 C149.57099058 336.84387281 147.12491628 336.84814736 144.67882538 336.85344315 C136.13450208 336.87193509 127.59024108 336.880115 119.04589844 336.87854004 C111.09901775 336.87733957 103.15240906 336.89842535 95.20559716 336.93002737 C88.36884551 336.95623976 81.5321824 336.96690523 74.69538093 336.96562922 C70.61833866 336.96512095 66.54153813 336.97072879 62.4645462 336.99198532 C58.62633675 337.01145116 54.78859752 337.01143586 50.95037079 336.99695206 C49.54840909 336.99487299 48.14641732 336.99951067 46.74450684 337.01167297 C37.18148747 337.08920741 29.26495888 336.24714054 21.40429688 330.46496582 C20.69144531 329.75727051 19.97859375 329.0495752 19.24414062 328.32043457 C15.88829297 325.11094787 12.50097959 322.09037867 8.86914062 319.19543457 C4.05870518 315.30773427 -0.46208757 311.18568939 -4.97070312 306.9588623 C-8.41814112 303.74587062 -11.9524583 300.70879574 -15.63085938 297.75793457 C-24.55103147 290.51272929 -32.46505242 283.60164963 -34.25112915 271.59988403 C-34.39136561 268.55241479 -34.3825391 265.54585373 -34.30664062 262.49621582 C-34.29956589 261.401978 -34.29249115 260.30774017 -34.28520203 259.18034363 C-34.2574803 255.72630955 -34.19478244 252.27396872 -34.13085938 248.82043457 C-34.10574786 246.46173422 -34.08293974 244.10300816 -34.0625 241.7442627 C-34.01200263 235.9976619 -33.91410278 230.25466631 -33.81835938 224.50793457 C-44.37835938 224.50793457 -54.93835938 224.50793457 -65.81835938 224.50793457 C-65.77195313 228.3364502 -65.72554687 232.16496582 -65.67773438 236.10949707 C-65.64652767 239.82286249 -65.62224607 243.53621324 -65.59863281 247.24963379 C-65.57853375 249.82782545 -65.55124996 252.40597161 -65.51660156 254.98400879 C-65.46801091 258.69261918 -65.4453728 262.40062613 -65.42773438 266.10949707 C-65.40708923 267.25971344 -65.38644409 268.40992981 -65.36517334 269.59500122 C-65.36341093 275.89896995 -65.54589269 279.73750453 -69.81835938 284.50793457 C-74.62294324 289.24930023 -79.59899724 289.02766185 -86.00585938 289.05480957 C-87.26398438 289.03934082 -88.52210937 289.02387207 -89.81835938 289.00793457 C-91.07648438 289.02340332 -92.33460937 289.03887207 -93.63085938 289.05480957 C-105.26079583 289.00553018 -105.26079583 289.00553018 -109.81835938 284.50793457 C-113.18163794 280.16416901 -114.31902211 277.38721534 -114.32629395 271.90441895 C-114.33757324 270.59223389 -114.34885254 269.28004883 -114.36047363 267.92810059 C-114.35269747 266.48595969 -114.34450486 265.04382099 -114.3359375 263.60168457 C-114.34136128 262.07360162 -114.34848538 260.54552391 -114.35717773 259.01745605 C-114.37538381 254.87691378 -114.36835494 250.73677102 -114.35566139 246.59622192 C-114.34551958 242.25883931 -114.35493035 237.92149043 -114.36120605 233.58410645 C-114.36847903 226.30084098 -114.35890398 219.01773787 -114.33984375 211.73449707 C-114.31807562 203.31945535 -114.32512724 194.90480131 -114.34714937 186.48976898 C-114.36531338 179.25900713 -114.36785682 172.02836184 -114.3573947 164.79758453 C-114.35116525 160.4814875 -114.35030896 156.16557257 -114.36354065 151.8494873 C-114.37511317 147.79128919 -114.36704822 143.7335899 -114.34396362 139.67544556 C-114.33868396 138.18796618 -114.34017765 136.70044468 -114.34901428 135.21298218 C-114.35998088 133.17915365 -114.34377596 131.14523316 -114.32629395 129.1114502 C-114.32403179 127.40583923 -114.32403179 127.40583923 -114.32172394 125.66577148 C-113.53216503 120.71250609 -110.94812731 117.62283714 -107.44335938 114.16418457 C-101.70297941 111.54142476 -96.04959797 111.93132098 -89.81835938 112.00793457 C-88.56023437 111.99246582 -87.30210938 111.97699707 -86.00585938 111.96105957 C-74.37592292 112.01033896 -74.37592292 112.01033896 -69.81835938 116.50793457 C-64.77656134 122.13736286 -65.29669262 127.60555651 -65.42773438 134.90637207 C-65.43339417 136.09646881 -65.43905396 137.28656555 -65.44488525 138.51272583 C-65.46722486 142.30320943 -65.51741975 146.09273802 -65.56835938 149.88293457 C-65.58842736 152.45713964 -65.60667761 155.03135957 -65.62304688 157.60559082 C-65.66367513 163.90703347 -65.74197736 170.20641862 -65.81835938 176.50793457 C-55.25835937 176.50793457 -44.69835937 176.50793457 -33.81835938 176.50793457 C-33.86476563 171.4264502 -33.91117187 166.34496582 -33.95898438 161.10949707 C-33.97944318 157.87379932 -33.99870029 154.63818229 -34.01367188 151.40246582 C-34.03750432 146.27615622 -34.06557651 141.15013472 -34.12011719 136.02404785 C-34.16385205 131.88727046 -34.18755425 127.75080239 -34.19786835 123.61381149 C-34.20521049 122.04227205 -34.21954703 120.4707479 -34.2412796 118.89934158 C-34.39152131 107.5767713 -33.62141766 97.71184042 -25.52148438 89.03918457 C-18.74807941 82.94933423 -11.64764295 80.24888445 -2.52783203 80.28088379 C-1.47313217 80.28044571 -1.47313217 80.28044571 -0.39712524 80.27999878 C1.90790504 80.28138296 4.21260488 80.2969006 6.51757812 80.31262207 C8.1232587 80.31635545 9.72894157 80.31920089 11.33462524 80.32119751 C15.54651251 80.32880836 19.75826033 80.34843478 23.97009277 80.37060547 C29.03123595 80.39473004 34.09242593 80.40385703 39.15361023 80.41551208 C46.82971714 80.43486081 54.50551849 80.47320099 62.18164062 80.50793457 C62.18164062 69.94793457 62.18164062 59.38793457 62.18164062 48.50793457 C57.198125 48.55434082 52.21460938 48.60074707 47.08007812 48.64855957 C43.91729679 48.66900497 40.75459728 48.68826112 37.59179688 48.70324707 C32.57485978 48.72713116 27.55821553 48.75534386 22.54150391 48.80969238 C18.49551821 48.85324877 14.44984667 48.87709227 10.40364456 48.88744354 C8.86229128 48.89481743 7.32095461 48.90921714 5.77973557 48.9308548 C3.61564126 48.96002068 1.45283437 48.96388533 -0.71142578 48.96203613 C-1.94164459 48.97091858 -3.1718634 48.97980103 -4.43936157 48.98895264 C-9.55823202 48.26025457 -12.59870783 45.74384814 -16.16210938 42.13293457 C-18.78486919 36.3925546 -18.39497296 30.73917316 -18.31835938 24.50793457 C-18.3415625 22.62074707 -18.3415625 22.62074707 -18.36523438 20.69543457 C-18.31595498 9.06549812 -18.31595498 9.06549812 -13.81835938 4.50793457 C-9.23004895 0.85382094 -5.73428478 -0.07207257 0 0 Z M83.18164062 149.50793457 C75.73785408 158.64264963 69.55041833 168.90598777 63.09741211 178.74499512 C61.22674241 181.59695934 59.35196881 184.44619271 57.4765625 187.29504395 C56.2855705 189.10673726 55.09480676 190.91858066 53.90429688 192.73059082 C53.34396255 193.5825856 52.78362823 194.43458038 52.20631409 195.31239319 C51.69165085 196.09758835 51.17698761 196.88278351 50.64672852 197.69177246 C50.19342667 198.38251358 49.74012482 199.0732547 49.27308655 199.78492737 C46.48613704 204.18453524 46.62442734 208.40668621 47.18164062 213.50793457 C49.52956721 218.38439747 52.46924917 220.91131071 57.18164062 223.50793457 C61.35508342 224.63298146 65.36286551 224.62275041 69.66992188 224.60559082 C70.95680908 224.60309326 72.24369629 224.6005957 73.56958008 224.59802246 C76.00723755 224.58436646 76.00723755 224.58436646 78.49414062 224.57043457 C83.67101562 224.54980957 88.84789062 224.52918457 94.18164062 224.50793457 C94.18164062 240.01793457 94.18164062 255.52793457 94.18164062 271.50793457 C101.70907336 270.43258704 104.4164504 269.12966357 108.78201294 263.41183472 C110.55774011 260.86745427 112.25429171 258.28364877 113.93554688 255.67590332 C114.55888412 254.72532547 115.18222137 253.77474762 115.82444763 252.79536438 C117.80662508 249.76779081 119.77542422 246.73177414 121.74414062 243.69543457 C123.07076151 241.66557991 124.39822724 239.63627713 125.7265625 237.60754395 C129.22788828 232.25143126 132.72084549 226.89034221 136.18164062 221.50793457 C136.67674637 220.74333923 137.17185211 219.9787439 137.68196106 219.190979 C138.13544418 218.48145081 138.58892731 217.77192261 139.05615234 217.04089355 C139.45317352 216.42270248 139.8501947 215.80451141 140.25924683 215.16758728 C142.33222533 211.43770055 141.91269102 207.57995359 141.18164062 203.50793457 C138.83371404 198.63147167 135.89403208 196.10455843 131.18164062 193.50793457 C127.00819783 192.38288768 123.00041574 192.39311873 118.69335938 192.41027832 C116.76302856 192.41402466 116.76302856 192.41402466 114.79370117 192.41784668 C112.3560437 192.43150269 112.3560437 192.43150269 109.86914062 192.44543457 C104.69226563 192.46605957 99.51539063 192.48668457 94.18164062 192.50793457 C94.18164062 176.99793457 94.18164062 161.48793457 94.18164062 145.50793457 C88.96570901 145.50793457 86.83212278 146.06464194 83.18164062 149.50793457 Z " fill="#ea2340" transform="translate(145.818359375,79.4920654296875)"/>
</svg>
