<?xml version="1.0" encoding="UTF-8"?>
<svg version="1.1" xmlns="http://www.w3.org/2000/svg" width="512" height="512">
<path d="M0 0 C10.05851579 8.92443779 19.99436047 18.34480756 27.42871094 29.62451172 C24.41471748 32.09555272 21.53447401 33.53235082 17.90087891 34.92114258 C16.23797318 35.56212135 16.23797318 35.56212135 14.54147339 36.21604919 C13.34668365 36.66924026 12.15189392 37.12243134 10.92089844 37.58935547 C9.67239677 38.06815525 8.42411942 38.54754034 7.17605591 39.02748108 C3.89078552 40.28913695 0.60269651 41.54327482 -2.68609619 42.79571533 C-6.6515969 44.30738563 -10.61377999 45.82772355 -14.57642937 47.34684849 C-17.66691476 48.53143931 -20.75801532 49.71432484 -23.85037231 50.89402771 C-24.9778891 51.32449905 -26.10540588 51.7549704 -27.26708984 52.19848633 C-28.33783752 52.60477264 -29.40858521 53.01105896 -30.51177979 53.42965698 C-32.50315562 54.20736499 -34.48212703 55.01788483 -36.44476318 55.86550903 C-37.3178009 56.24174408 -38.19083862 56.61797913 -39.09033203 57.00561523 C-40.21542679 57.510895 -40.21542679 57.510895 -41.36325073 58.02638245 C-44.14907931 58.78102769 -45.83476605 58.49634896 -48.57128906 57.62451172 C-50.58745107 55.71076723 -52.3426541 53.85341763 -54.13378906 51.74951172 C-55.20045724 50.55224453 -56.27085493 49.35829088 -57.34472656 48.16748047 C-57.88452148 47.5685498 -58.42431641 46.96961914 -58.98046875 46.35253906 C-88.20720338 14.605021 -132.25777575 -2.97050731 -174.82128906 -5.18798828 C-214.9835744 -6.72871533 -255.524883 5.09115599 -287.57128906 29.62451172 C-288.41046875 30.25486328 -289.24964844 30.88521484 -290.11425781 31.53466797 C-326.26796275 59.52648721 -346.39737881 97.55319543 -356.57128906 141.62451172 C-357.56128906 141.62451172 -358.55128906 141.62451172 -359.57128906 141.62451172 C-355.51369968 95.96149087 -336.94941687 51.44850092 -305.56738281 17.77294922 C-303.7474366 15.814103 -302.03411533 13.80155297 -300.32128906 11.74951172 C-265.86869971 -27.51224914 -211.6473097 -49.91958947 -160.43847656 -54.19458008 C-101.1709736 -57.93412535 -44.64810823 -39.08443781 0 0 Z " fill="#ea2340" transform="translate(400.5712890625,192.37548828125)"/>
<path d="M0 0 C-3.46958441 3.63602204 -6.9960755 6.59482903 -11.125 9.5 C-12.02907593 10.13784424 -12.02907593 10.13784424 -12.95141602 10.78857422 C-18.7062765 14.83229478 -24.51780144 18.79448189 -30.32983398 22.75537109 C-36.80942066 27.17341683 -43.25349176 31.64088369 -49.6875 36.125 C-56.17366645 40.64546743 -62.66537421 45.15655395 -69.1875 49.625 C-75.15170669 53.71222896 -81.08066384 57.84808036 -87 62 C-93.54751933 66.59253764 -100.11349427 71.15531089 -106.7109375 75.67578125 C-113.66207846 80.44346243 -120.57518501 85.26557128 -127.49121094 90.08398438 C-132.51478942 93.58198227 -137.54406395 97.07068796 -142.59619141 100.52734375 C-144.51521792 101.8425941 -146.42765816 103.16701937 -148.33984375 104.4921875 C-150.82516456 106.21028612 -153.33905827 107.87154589 -155.87890625 109.5078125 C-162.69239209 113.98854853 -167.14277536 117.88380686 -170.66015625 125.453125 C-174.44617914 132.64987987 -181.58299978 136.38392628 -189 139 C-198.14636989 141.81426766 -208.01904653 140.05911063 -216.3828125 135.78125 C-223.98954701 131.13985267 -230.12255652 124.35207954 -232.5625 115.64453125 C-234.54628105 103.65328328 -233.09466594 93.78156021 -226.3125 83.75 C-220.29703474 76.30586174 -212.37782273 72.391557 -203 71 C-200.67844325 71.13503038 -198.35811868 71.29210873 -196.0390625 71.46484375 C-184.63346999 71.79089988 -174.73865534 66.79734503 -164.4375 62.4375 C-162.30589211 61.56026381 -160.17297473 60.68620342 -158.03881836 59.81518555 C-153.72853918 58.05471589 -149.42295822 56.28344744 -145.12011719 54.50488281 C-137.27094193 51.27517688 -129.35576083 48.22673495 -121.42269897 45.21026611 C-117.4651495 43.70490413 -113.51199511 42.18809016 -109.55859375 40.671875 C-108.77738663 40.37250031 -107.9961795 40.07312561 -107.19129944 39.76467896 C-93.72153875 34.5978659 -80.29246381 29.32559949 -66.85676575 24.07102966 C-60.51553223 21.59129817 -54.17224094 19.11687815 -47.828125 16.64453125 C-45.97574427 15.92245602 -44.12336793 15.20036954 -42.27099609 14.47827148 C-39.61643284 13.4434674 -36.96181241 12.40881196 -34.3069458 11.37478638 C-32.66167425 10.73392589 -31.01653953 10.09271402 -29.37155151 9.4511261 C-27.80647572 8.84091977 -26.24099562 8.23174924 -24.67507935 7.623703 C-20.96571034 6.17902795 -17.27200236 4.70696912 -13.59863281 3.17285156 C-12.90706085 2.88664948 -12.21548889 2.60044739 -11.50296021 2.30557251 C-9.6357306 1.52971415 -7.77300849 0.74303264 -5.91064453 -0.04443359 C-3 -1 -3 -1 0 0 Z " fill="#000000" transform="translate(444,234)"/>
<path d="M0 0 C3 1 3 1 4.578125 3.7109375 C5.14917096 4.92592166 5.70535596 6.1479536 6.25 7.375 C6.70234009 8.37877686 6.70234009 8.37877686 7.16381836 9.40283203 C16.38635551 30.24858752 22.90313242 52.23400909 25 75 C25.10957031 76.07765625 25.21914063 77.1553125 25.33203125 78.265625 C26.06991946 86.41191088 26.62351063 94.83095395 26 103 C23.5704097 105.4295903 22.30611087 105.23446257 18.99156189 105.24884033 C18.29744705 105.24164978 17.60333221 105.23445923 16.88818359 105.22705078 C15.79046883 105.22748886 15.79046883 105.22748886 14.670578 105.22793579 C12.24641146 105.22654001 9.82255049 105.2109674 7.3984375 105.1953125 C5.71977913 105.19158325 4.04111859 105.18873586 2.36245728 105.18673706 C-2.05991607 105.17909369 -6.48215845 105.15943922 -10.90447998 105.1373291 C-15.41546863 105.11688579 -19.9264784 105.10773859 -24.4375 105.09765625 C-33.29172427 105.07619394 -42.14585125 105.04204955 -51 105 C-53.19764888 101.00312253 -53.42930678 97.29056888 -53.75 92.8125 C-54.46825428 84.63215743 -56.00488047 76.78955778 -57.9375 68.8125 C-58.19047852 67.76231689 -58.44345703 66.71213379 -58.70410156 65.63012695 C-59.81728398 61.1698951 -60.98899939 56.8477298 -62.69140625 52.57421875 C-63.91712564 49.22635832 -64.46500105 47.46904458 -64 44 C-62.34545898 42.30932617 -62.34545898 42.30932617 -59.99609375 40.79296875 C-58.68439209 39.92526855 -58.68439209 39.92526855 -57.34619141 39.04003906 C-56.38632324 38.42870117 -55.42645508 37.81736328 -54.4375 37.1875 C-52.41183175 35.8542745 -50.3871223 34.51959131 -48.36328125 33.18359375 C-47.31221191 32.4963623 -46.26114258 31.80913086 -45.17822266 31.10107422 C-40.09678321 27.74181259 -35.11320707 24.24555402 -30.125 20.75 C-28.21655675 19.41868159 -26.30771086 18.08794016 -24.3984375 16.7578125 C-23.49061523 16.12520508 -22.58279297 15.49259766 -21.64746094 14.84082031 C-17.69041737 12.08942706 -13.72230975 9.35429285 -9.75 6.625 C-9.10047363 6.17866211 -8.45094727 5.73232422 -7.78173828 5.27246094 C-5.19780352 3.49929625 -2.60754245 1.73836163 0 0 Z " fill="#ea2340" transform="translate(445,252)"/>
</svg>
